<svg xmlns="http://www.w3.org/2000/svg" xmlns:xlink="http://www.w3.org/1999/xlink" viewBox="0 0 1000 1000" width="1000"
    height="1000" preserveAspectRatio="xMidYMid meet"
    style="width: 100%; height: 100%; transform: translate3d(0px, 0px, 0px); content-visibility: visible;">
    <defs>
        <clipPath id="__lottie_element_2">
            <rect width="1000" height="1000" x="0" y="0"></rect>
        </clipPath>
    </defs>
    <g clip-path="url(#__lottie_element_2)">
        <g transform="matrix(1,0,0,1,459.466552734375,537.9510498046875)" opacity="1" style="display: block;">
            <g opacity="1" transform="matrix(1,0,0,1,0,0)">
                <path stroke-linecap="round" stroke-linejoin="miter" fill-opacity="0" stroke-miterlimit="4"
                    stroke="rgb(255,255,255)" stroke-opacity="1" stroke-width="15"
                    d=" M20,-389.89599609375 C20,-389.89599609375 -115.00299835205078,-389.9419860839844 -205.86099243164062,-389.9729919433594 M24,-314 C24,-314 -106.79000091552734,-314 -194.81300354003906,-314 M32,-200 C32,-200 -163.68099975585938,-200 -295.3760070800781,-200 M22,-82 C22,-82 -110.22100067138672,-82 -199.20599365234375,-82 M4,54 C4,54 -200.94700622558594,54 -338.87799072265625,54 M14,150 C14,150 -68.875,150 -124.6500015258789,150">
                </path>
            </g>
        </g>
        <g transform="matrix(1.3533161878585815,0.8535427451133728,-0.8535427451133728,1.3533161878585815,485.9967041015625,543.4177856445312)"
            opacity="1" style="display: block;">
            <g opacity="1" transform="matrix(1,0,0,1,0,0)">
                <path stroke-linecap="round" stroke-linejoin="miter" fill-opacity="0" stroke-miterlimit="10"
                    stroke="rgb(25,12,35)" stroke-opacity="1" stroke-width="40"
                    d=" M47.84400177001953,115.6050033569336 C47.84400177001953,115.6050033569336 61.327999114990234,149.2209930419922 61.72200012207031,181.54200744628906 C62.11600112915039,213.86300659179688 49.755001068115234,235.89300537109375 49.755001068115234,235.89300537109375">
                </path>
            </g>
            <g opacity="1" transform="matrix(1,0,0,1,0,0)">
                <path stroke-linecap="butt" stroke-linejoin="miter" fill-opacity="0" stroke-miterlimit="4"
                    stroke="rgb(255,255,255)" stroke-opacity="1" stroke-width="2"
                    d=" M77,143 C77,143 86.5,181.5 78,217"></path>
            </g>
        </g>
        <g transform="matrix(1.4842453002929688,0.5975081324577332,-0.5975081324577332,1.4842453002929688,436.06695556640625,511.9405212402344)"
            opacity="1" style="display: block;">
            <g opacity="1" transform="matrix(1,0,0,1,0,0)">
                <path stroke-linecap="round" stroke-linejoin="miter" fill-opacity="0" stroke-miterlimit="10"
                    stroke="rgb(25,12,35)" stroke-opacity="1" stroke-width="40"
                    d=" M79.7699966430664,-10.939000129699707 C79.7699966430664,-10.939000129699707 91.3294677734375,24.4195556640625 117.6543197631836,39.28700256347656 C148.1449737548828,56.4306640625 167.9288330078125,27.337421417236328 167.9288330078125,27.337421417236328">
                </path>
            </g>
            <g opacity="1" transform="matrix(1,0,0,1,0,0)">
                <path stroke-linecap="butt" stroke-linejoin="miter" fill-opacity="0" stroke-miterlimit="4"
                    stroke="rgb(255,255,255)" stroke-opacity="1" stroke-width="2"
                    d=" M100.16456604003906,-12.977167129516602 C100.16456604003906,-12.977167129516602 107.28861999511719,10.598464965820312 132.18963623046875,24.55376434326172">
                </path>
            </g>
        </g>
        <g transform="matrix(1.4842453002929688,0.5975081324577332,-0.5975081324577332,1.4842453002929688,440.732421875,511.9921569824219)"
            opacity="1" style="display: block;">
            <g opacity="1" transform="matrix(1,0,0,1,73.28600311279297,-13.991000175476074)">
                <path fill="rgb(255,255,255)" fill-opacity="1"
                    d=" M0,-23.5 C13.393508911132812,-23.5 24.26799964904785,-12.969650268554688 24.26799964904785,0 C24.26799964904785,12.969650268554688 13.393508911132812,23.5 0,23.5 C-13.393508911132812,23.5 -24.26799964904785,12.969650268554688 -24.26799964904785,0 C-24.26799964904785,-12.969650268554688 -13.393508911132812,-23.5 0,-23.5z">
                </path>
                <path stroke-linecap="butt" stroke-linejoin="miter" fill-opacity="0" stroke-miterlimit="10"
                    stroke="rgb(25,12,35)" stroke-opacity="1" stroke-width="5"
                    d=" M0,-23.5 C13.393508911132812,-23.5 24.26799964904785,-12.969650268554688 24.26799964904785,0 C24.26799964904785,12.969650268554688 13.393508911132812,23.5 0,23.5 C-13.393508911132812,23.5 -24.26799964904785,12.969650268554688 -24.26799964904785,0 C-24.26799964904785,-12.969650268554688 -13.393508911132812,-23.5 0,-23.5z">
                </path>
            </g>
        </g>
        <g transform="matrix(1.600000023841858,0,0,1.600000023841858,440.60894775390625,557.400634765625)" opacity="1"
            style="display: block;">
            <g opacity="1" transform="matrix(1,0,0,1,0,0)">
                <path fill="rgb(25,12,35)" fill-opacity="1"
                    d=" M93.55599975585938,25.993000030517578 C93.55599975585938,-38.07600021362305 53.70899963378906,-47 4.556000232696533,-47 C-44.59700012207031,-47 -84.44400024414062,-38.07600021362305 -84.44400024414062,25.993000030517578 C-84.44400024414062,90.06199645996094 -44.59700012207031,142 4.556000232696533,142 C53.70899963378906,142 93.55599975585938,90.06199645996094 93.55599975585938,25.993000030517578z">
                </path>
            </g>
            <g opacity="1" transform="matrix(1,0,0,1,0,0)">
                <path fill="rgb(255,255,255)" fill-opacity="1"
                    d=" M29.72800064086914,16.979000091552734 C33.183998107910156,3.681999921798706 35.17300033569336,-11.085000038146973 32.47700119018555,-23.89699935913086 C46.564998626708984,-27.0049991607666 56.055999755859375,-32.82600021362305 56.055999755859375,-39.5 C56.055999755859375,-49.441001892089844 35.01300048828125,-57.5 9.055999755859375,-57.5 C-16.900999069213867,-57.5 -37.944000244140625,-49.441001892089844 -37.944000244140625,-39.5 C-37.944000244140625,-29.55900001525879 -16.900999069213867,-21.5 9.055999755859375,-21.5 C9.633999824523926,-21.5 10.206999778747559,-21.509000778198242 10.779999732971191,-21.517000198364258 C14.027999877929688,-13.95300006866455 16.841999053955078,0.8169999718666077 19.405000686645508,16.475000381469727 C19.792999267578125,18.844999313354492 21.729999542236328,20.658000946044922 24.121000289916992,20.884000778198242 C24.121000289916992,20.884000778198242 24.121000289916992,20.884000778198242 24.121000289916992,20.884000778198242 C26.69300079345703,21.12700080871582 29.077999114990234,19.479999542236328 29.72800064086914,16.979000091552734z">
                </path>
                <path stroke-linecap="butt" stroke-linejoin="miter" fill-opacity="0" stroke-miterlimit="10"
                    stroke="rgb(25,12,35)" stroke-opacity="1" stroke-width="5"
                    d=" M29.72800064086914,16.979000091552734 C33.183998107910156,3.681999921798706 35.17300033569336,-11.085000038146973 32.47700119018555,-23.89699935913086 C46.564998626708984,-27.0049991607666 56.055999755859375,-32.82600021362305 56.055999755859375,-39.5 C56.055999755859375,-49.441001892089844 35.01300048828125,-57.5 9.055999755859375,-57.5 C-16.900999069213867,-57.5 -37.944000244140625,-49.441001892089844 -37.944000244140625,-39.5 C-37.944000244140625,-29.55900001525879 -16.900999069213867,-21.5 9.055999755859375,-21.5 C9.633999824523926,-21.5 10.206999778747559,-21.509000778198242 10.779999732971191,-21.517000198364258 C14.027999877929688,-13.95300006866455 16.841999053955078,0.8169999718666077 19.405000686645508,16.475000381469727 C19.792999267578125,18.844999313354492 21.729999542236328,20.658000946044922 24.121000289916992,20.884000778198242 C24.121000289916992,20.884000778198242 24.121000289916992,20.884000778198242 24.121000289916992,20.884000778198242 C26.69300079345703,21.12700080871582 29.077999114990234,19.479999542236328 29.72800064086914,16.979000091552734z">
                </path>
            </g>
            <g opacity="1" transform="matrix(1,0,0,1,0.5,0)">
                <path stroke-linecap="butt" stroke-linejoin="miter" fill-opacity="0" stroke-miterlimit="10"
                    stroke="rgb(255,255,255)" stroke-opacity="1" stroke-width="2"
                    d=" M73.55599975585938,-30 C95.05599975585938,-17.5 119.2959976196289,87.81800079345703 33.29600143432617,135.8179931640625">
                </path>
            </g>
        </g>
        <g transform="matrix(1.5999106168746948,0.016922200098633766,-0.016922200098633766,1.5999106168746948,440.136474609375,557.1475830078125)"
            opacity="1" style="display: block;">
            <g opacity="1" transform="matrix(1,0,0,1,10.555999755859375,-168)">
                <path fill="rgb(25,12,35)" fill-opacity="1"
                    d=" M0,-136 C75.05840301513672,-136 136,-75.05840301513672 136,0 C136,75.05840301513672 75.05840301513672,136 0,136 C-75.05840301513672,136 -136,75.05840301513672 -136,0 C-136,-75.05840301513672 -75.05840301513672,-136 0,-136z">
                </path>
            </g>
            <g opacity="1" transform="matrix(1,0,0,1,43.055999755859375,-168.50100708007812)">
                <path fill="rgb(255,255,255)" fill-opacity="1"
                    d=" M0,-108.5 C61.148590087890625,-108.5 110.79650115966797,-59.88114929199219 110.79650115966797,0 C110.79650115966797,59.88114929199219 61.148590087890625,108.5 0,108.5 C-61.148590087890625,108.5 -110.79650115966797,59.88114929199219 -110.79650115966797,0 C-110.79650115966797,-59.88114929199219 -61.148590087890625,-108.5 0,-108.5z">
                </path>
                <path stroke-linecap="butt" stroke-linejoin="miter" fill-opacity="0" stroke-miterlimit="10"
                    stroke="rgb(25,12,35)" stroke-opacity="1" stroke-width="5"
                    d=" M0,-108.5 C61.148590087890625,-108.5 110.79650115966797,-59.88114929199219 110.79650115966797,0 C110.79650115966797,59.88114929199219 61.148590087890625,108.5 0,108.5 C-61.148590087890625,108.5 -110.79650115966797,59.88114929199219 -110.79650115966797,0 C-110.79650115966797,-59.88114929199219 -61.148590087890625,-108.5 0,-108.5z">
                </path>
            </g>
            <g opacity="1" transform="matrix(1,0,0,1,58.555999755859375,-168)">
                <path fill="rgb(25,12,35)" fill-opacity="1"
                    d=" M0,-94.5 C53.25835037231445,-94.5 96.5,-52.15454864501953 96.5,0 C96.5,52.15454864501953 53.25835037231445,94.5 0,94.5 C-53.25835037231445,94.5 -96.5,52.15454864501953 -96.5,0 C-96.5,-52.15454864501953 -53.25835037231445,-94.5 0,-94.5z">
                </path>
            </g>
            <g opacity="1" transform="matrix(1,0,0,1,10.555999755859375,-168)">
                <path stroke-linecap="butt" stroke-linejoin="miter" fill-opacity="0" stroke-miterlimit="4"
                    stroke="rgb(255,255,255)" stroke-opacity="1" stroke-width="2"
                    d=" M0,136 C-67.66600036621094,136 -123.79000091552734,86.58300018310547 -134.25100708007812,21.8700008392334 C-135.40199279785156,14.75 -136,7.445000171661377 -136,0 C-136,-75.11100006103516 -75.11100006103516,-136 0,-136">
                </path>
            </g>
            <g opacity="1" transform="matrix(1,0,0,1,0,0)">
                <path fill="rgb(255,255,255)" fill-opacity="1"
                    d=" M-12.13700008392334,-168.5 C-12.13700008392334,-195.83799743652344 -0.9350000023841858,-218 -3.9630000591278076,-218 C-6.991000175476074,-218 -23.10300064086914,-195.83799743652344 -23.10300064086914,-168.5 C-23.10300064086914,-141.16200256347656 -6.991000175476074,-119 -3.9630000591278076,-119 C-0.9350000023841858,-119 -12.13700008392334,-141.16200256347656 -12.13700008392334,-168.5z">
                </path>
            </g>
        </g>
        <g transform="matrix(1.5928771495819092,-0.15080659091472626,0.15080659091472626,1.5928771495819092,320.2064208984375,557.0964965820312)"
            opacity="1" style="display: block;">
            <g opacity="1" transform="matrix(1,0,0,1,0,0)">
                <path stroke-linecap="round" stroke-linejoin="miter" fill-opacity="0" stroke-miterlimit="10"
                    stroke="rgb(25,12,35)" stroke-opacity="1" stroke-width="40"
                    d=" M47.84400177001953,115.6050033569336 C47.84400177001953,115.6050033569336 75.51029968261719,146.049560546875 73.1253433227539,178.16357421875 C70.56929016113281,206.30604553222656 26.939271926879883,203.7097930908203 26.939271926879883,203.7097930908203">
                </path>
            </g>
            <g opacity="1" transform="matrix(1,0,0,1,0,0)">
                <path stroke-linecap="round" stroke-linejoin="miter" fill-opacity="0" stroke-miterlimit="4"
                    stroke="rgb(255,255,255)" stroke-opacity="1" stroke-width="2"
                    d=" M90.06575012207031,152.27481079101562 C90.06575012207031,152.27481079101562 102.24465942382812,205.2216339111328 67.3260269165039,212.3938751220703">
                </path>
            </g>
        </g>
        <g transform="matrix(1.5513817071914673,0.3914268910884857,-0.3914268910884857,1.5513817071914673,431.791748046875,583.616943359375)"
            opacity="1" style="display: block;">
            <g opacity="1" transform="matrix(1,0,0,1,-68.71399688720703,-13.991000175476074)">
                <path fill="rgb(255,255,255)" fill-opacity="1"
                    d=" M0,-23.5 C12.969650268554688,-23.5 23.5,-12.969650268554688 23.5,0 C23.5,12.969650268554688 12.969650268554688,23.5 0,23.5 C-12.969650268554688,23.5 -23.5,12.969650268554688 -23.5,0 C-23.5,-12.969650268554688 -12.969650268554688,-23.5 0,-23.5z">
                </path>
                <path stroke-linecap="butt" stroke-linejoin="miter" fill-opacity="0" stroke-miterlimit="10"
                    stroke="rgb(25,12,35)" stroke-opacity="1" stroke-width="5"
                    d=" M0,-23.5 C12.969650268554688,-23.5 23.5,-12.969650268554688 23.5,0 C23.5,12.969650268554688 12.969650268554688,23.5 0,23.5 C-12.969650268554688,23.5 -23.5,12.969650268554688 -23.5,0 C-23.5,-12.969650268554688 -12.969650268554688,-23.5 0,-23.5z">
                </path>
            </g>
        </g>
        <g transform="matrix(1.5513817071914673,0.3914268910884857,-0.3914268910884857,1.5513817071914673,427.71441650390625,582.5370483398438)"
            opacity="1" style="display: block;">
            <g opacity="1" transform="matrix(1,0,0,1,0,0)">
                <path stroke-linecap="round" stroke-linejoin="miter" fill-opacity="0" stroke-miterlimit="10"
                    stroke="rgb(25,12,35)" stroke-opacity="1" stroke-width="40"
                    d=" M-69.37300109863281,-9.779000282287598 C-69.37300109863281,-9.779000282287598 -82.89518737792969,16.218801498413086 -86.51073455810547,44.559879302978516 C-90.44625091552734,76.22804260253906 -73.80918884277344,89.1942367553711 -73.80918884277344,89.1942367553711">
                </path>
            </g>
            <g opacity="1" transform="matrix(1,0,0,1,0,0)">
                <path stroke-linecap="round" stroke-linejoin="miter" fill-opacity="0" stroke-miterlimit="10"
                    stroke="rgb(255,255,255)" stroke-opacity="1" stroke-width="3"
                    d=" M-56.51499938964844,83.60842895507812 C-53.38283920288086,90.5040054321289 -56.038291931152344,99.27471160888672 -64.29135131835938,104.82948303222656 C-72.60546112060547,110.73784637451172 -83.3405990600586,109.5474624633789 -86.64161682128906,105.21743774414062 M-101.13191986083984,19.32499885559082 C-101.13191986083984,19.32499885559082 -110.13648223876953,45.577247619628906 -104.13961791992188,74.40606689453125 M-48.4739990234375,-6.185999870300293 C-48.4739990234375,-6.185999870300293 -70.7918472290039,29.196475982666016 -68.05287170410156,52.40180969238281">
                </path>
            </g>
        </g>
        <g transform="matrix(1,0,0,1,459.4661560058594,500)" opacity="1" style="display: block;"></g>
    </g>
</svg>